<svg id="Layer_3" data-name="Layer 3" xmlns="http://www.w3.org/2000/svg" viewBox="0 0 255.83 141.63"><defs><style>.cls-1{fill:#b2d236;}.cls-2{fill:#b2d235;}</style></defs><path class="cls-1" d="M695.08,563.65a75,75,0,0,1-63.88-113.9L657.3,466a44.2,44.2,0,0,0,75.05,46.69l26.09,16.24a74.38,74.38,0,0,1-46.21,32.74A75.5,75.5,0,0,1,695.08,563.65Z" transform="translate(-620.27 -422.01)"/><path class="cls-1" d="M839.07,519.67a44.23,44.23,0,0,0-37.85-66.92,45,45,0,0,0-10.11,1.17A43.92,43.92,0,0,0,764,473l-26.09-16.24A74.43,74.43,0,0,1,784.14,424a74.41,74.41,0,0,1,56.58,9.35,74.92,74.92,0,0,1,24.44,102.56Z" transform="translate(-620.27 -422.01)"/><polygon class="cls-2" points="88.42 63.9 68.25 95.85 44.34 80.76 79.6 24.9 164.22 78.3 184.39 46.35 208.3 61.44 173.05 117.3 88.42 63.9"/></svg>